# xmcd
#
# Track frame offsets: 
#        150
#        14691
#        28519
#        42228
#        55288
#        68397
#        79433
#        89097
#        101708
#        113187
#        126903
#        138593
#        153510
#        168632
#        180643
#        193621
#        206378
#        217410
#        230595
#        240919
#        251638
#        262885
#        276397
#        290052
#
# Disc length: 4042 seconds
#
# Revision: 0
# Processed by: cddbd v1.5.2PL0 Copyright (c) Steve Scherf et al.
# Submitted via: ExactAudioCopy v1.0b1
#
DISCID=700fc818
DTITLE=Various Artist - The Fabulous Fifties Volume 1 [CD 1)
DYEAR=1950
DGENRE=Blues
TTITLE0=Jezabel - Frankie Laine
TTITLE1=You belong to me - Jo Stafford
TTITLE2=Cindy, Oh Cindy - Eddie Fisher
TTITLE3=Sweet Violets - Dinah Shore
TTITLE4=Vaya con dios - Les Paul and Mary Ford
TTITLE5=Mister Sandman - The Chordettes
TTITLE6=Hearts of Stone - The Fontane Sisters
TTITLE7=Comin' Round the Mountain March - Red Ingle and The Natural Seve
TTITLE7=n
TTITLE8=My Bonnie Lassie - The Ames Brothers
TTITLE9=Little Things Mean a Lot - Kitty Kallen
TTITLE10=Orange Coloured Sky - Nat King Cole with Stan Kenton and His Or
TTITLE10=chestra
TTITLE11=If I were a Blackbird - Ronnie Ronalde
TTITLE12=Mr Wonderful - Peggy Lee
TTITLE13=Cornflakes - Les Baxter and His Orchestra
TTITLE14=If I give my Heart to you - Doris Day
TTITLE15=The Roving Kind - Guy Mitchell
TTITLE16=Eh Cumpari - Julius LaRosa
TTITLE17=Music! Music! Music! - Teresa Brewer
TTITLE18=Skokiaan - The Four Lads
TTITLE19=Sing Boy, Sing - Tommy Sands
TTITLE20=The Crazy Otto Rag - Crazy Otto
TTITLE21=The Place Where I Worship - Guy Mitchell and Rosemary Clooney
TTITLE22=Friendly Persuasion - Pat Boone
TTITLE23=Allegheny Moon - Patti Page
EXTD=
EXTT0=
EXTT1=
EXTT2=
EXTT3=
EXTT4=
EXTT5=
EXTT6=
EXTT7=
EXTT8=
EXTT9=
EXTT10=
EXTT11=
EXTT12=
EXTT13=
EXTT14=
EXTT15=
EXTT16=
EXTT17=
EXTT18=
EXTT19=
EXTT20=
EXTT21=
EXTT22=
EXTT23=
PLAYORDER=
